# xmcd
#
# Track frame offsets: 
#        150
#        24001
#        42859
#        68219
#        83601
#        109296
#        133312
#        151888
#        173221
#        193873
#        216630
#
# Disc length: 3157 seconds
#
# Revision: 0
# Processed by: cddbd v1.5.2PL0 Copyright (c) Steve Scherf et al.
# Submitted via: ExactAudioCopy v0.99pb3
#
DISCID=980c530b
DTITLE=Barn Burning - Weatherbound
DYEAR=2003
DGENRE=Alternative
TTITLE0=Flown
TTITLE1=Preparations For Winter
TTITLE2=Streetlight
TTITLE3=Out The Window
TTITLE4=The Troubles
TTITLE5=Weatherbound
TTITLE6=Windshield
TTITLE7=Not Falling
TTITLE8=Dead Horse Waltz
TTITLE9=100,000 Light Years
TTITLE10=Hidden Track
EXTD=
EXTT0=
EXTT1=
EXTT2=
EXTT3=
EXTT4=
EXTT5=
EXTT6=
EXTT7=
EXTT8=
EXTT9=
EXTT10=
PLAYORDER=
